<svg width="683" height="73" viewBox="0 0 683 73" fill="none" xmlns="http://www.w3.org/2000/svg">
<path d="M1.80689 0.272725C1.2546 0.272725 0.806885 0.72044 0.806885 1.27273V72C0.806885 72.5523 1.2546 73 1.80688 73H8.04552C8.59781 73 9.04552 72.5523 9.04552 72V18.1696C9.04552 17.9347 9.23593 17.7443 9.47081 17.7443V17.7443C9.64321 17.7443 9.79856 17.8484 9.86414 18.0078L32.2282 72.3804C32.3824 72.7553 32.7476 73 33.153 73H39.7676C40.173 73 40.5382 72.7553 40.6924 72.3804L63.0565 18.0078C63.122 17.8484 63.2774 17.7443 63.4498 17.7443V17.7443C63.6847 17.7443 63.8751 17.9347 63.8751 18.1696V72C63.8751 72.5523 64.3228 73 64.8751 73H71.1137C71.666 73 72.1137 72.5523 72.1137 72V1.27273C72.1137 0.720442 71.666 0.272725 71.1137 0.272725H62.2735C61.8675 0.272725 61.5019 0.518148 61.348 0.893838L37.0479 60.2477C36.9502 60.4862 36.7181 60.642 36.4603 60.642V60.642C36.2025 60.642 35.9704 60.4862 35.8727 60.2477L11.5725 0.893837C11.4187 0.518147 11.0531 0.272725 10.6471 0.272725H1.80689Z" fill="black"/>
<path d="M277.123 7.08522C277.123 7.63751 277.57 8.08523 278.123 8.08523H298.992C299.544 8.08523 299.992 8.53294 299.992 9.08523V72C299.992 72.5523 300.44 73 300.992 73H307.799C308.351 73 308.799 72.5523 308.799 72V9.08523C308.799 8.53294 309.246 8.08523 309.799 8.08523H330.668C331.22 8.08523 331.668 7.63751 331.668 7.08523V1.27273C331.668 0.720441 331.22 0.272725 330.668 0.272725H278.123C277.57 0.272725 277.123 0.72044 277.123 1.27273V7.08522Z" fill="black"/>
<path d="M410.26 72C410.26 72.5523 410.708 73 411.26 73H418.067C418.619 73 419.067 72.5523 419.067 72V45.5909C419.067 45.0386 419.515 44.5909 420.067 44.5909H434.976C435.391 44.5909 435.791 44.5909 436.186 44.5812C436.574 44.5716 436.941 44.7742 437.125 45.1164L451.88 72.4747C452.055 72.7983 452.393 73 452.76 73H460.703C461.463 73 461.945 72.1863 461.581 71.5199L446.52 44.0003C446.222 43.4557 446.489 42.7748 447.066 42.5458C455.566 39.1719 459.55 31.8362 459.55 22.5739C459.55 9.71875 451.879 0.272725 434.834 0.272725H411.26C410.708 0.272725 410.26 0.72044 410.26 1.27273V72ZM420.067 36.6364C419.515 36.6364 419.067 36.1886 419.067 35.6364V9.08523C419.067 8.53294 419.515 8.08523 420.067 8.08523H434.55C446.34 8.08523 450.885 13.8381 450.885 22.5739C450.885 31.3097 446.34 36.6364 434.692 36.6364H420.067Z" fill="black"/>
<path d="M548.032 1.27273C548.032 0.720442 547.584 0.272725 547.032 0.272725H540.225C539.673 0.272725 539.225 0.72044 539.225 1.27273V72C539.225 72.5523 539.673 73 540.225 73H547.032C547.584 73 548.032 72.5523 548.032 72V1.27273Z" fill="black"/>
<path d="M635.244 0.745961C635.062 0.451735 634.74 0.272725 634.394 0.272725H626.416C625.624 0.272725 625.147 1.14902 625.575 1.81448L647.67 36.0946C647.883 36.4245 647.883 36.8482 647.67 37.1781L625.575 71.4582C625.147 72.1237 625.624 73 626.416 73H634.4C634.743 73 635.062 72.8241 635.245 72.534L653.549 43.5527C653.644 43.4032 653.808 43.3125 653.985 43.3125V43.3125C654.162 43.3125 654.326 43.4032 654.421 43.5527L672.725 72.534C672.908 72.8241 673.227 73 673.57 73H681.578C682.365 73 682.844 72.1336 682.425 71.4676L660.854 37.1687C660.649 36.8433 660.649 36.4294 660.854 36.104L682.425 1.8051C682.844 1.13916 682.365 0.272725 681.578 0.272725H673.576C673.23 0.272725 672.908 0.451732 672.726 0.745958L654.419 30.2869C654.326 30.4371 654.162 30.5284 653.985 30.5284V30.5284C653.809 30.5284 653.644 30.4371 653.551 30.2869L635.244 0.745961Z" fill="black"/>
<path d="M203.799 72.3345C203.94 72.7335 204.318 73 204.741 73H211.835C212.531 73 213.014 72.308 212.774 71.6553L186.804 0.928042C186.659 0.534383 186.285 0.272725 185.865 0.272725H178.17C177.751 0.272725 177.376 0.53438 177.232 0.92804L151.262 71.6553C151.022 72.308 151.505 73 152.2 73H159.295C159.718 73 160.095 72.7335 160.237 72.3345L181.639 12.0461C181.696 11.8856 181.848 11.7784 182.018 11.7784V11.7784C182.188 11.7784 182.34 11.8856 182.397 12.0461L203.799 72.3345Z" fill="black"/>
</svg>
