<svg width="608" height="73" viewBox="0 0 608 73" fill="none" xmlns="http://www.w3.org/2000/svg">
<path d="M1.80682 0.27272C1.25454 0.27272 0.806824 0.720436 0.806824 1.27272V72C0.806824 72.5523 1.25454 73 1.80682 73H8.04546C8.59774 73 9.04546 72.5523 9.04546 72V18.1696C9.04546 17.9347 9.23587 17.7443 9.47075 17.7443V17.7443C9.64315 17.7443 9.79849 17.8484 9.86407 18.0078L32.2281 72.3804C32.3823 72.7553 32.7476 73 33.1529 73H39.7675C40.1729 73 40.5382 72.7553 40.6924 72.3804L63.0564 18.0078C63.122 17.8484 63.2773 17.7443 63.4497 17.7443V17.7443C63.6846 17.7443 63.875 17.9347 63.875 18.1696V72C63.875 72.5523 64.3227 73 64.875 73H71.1136C71.6659 73 72.1136 72.5523 72.1136 72V1.27272C72.1136 0.720437 71.6659 0.27272 71.1136 0.27272H62.2734C61.8675 0.27272 61.5018 0.518143 61.348 0.893833L37.0478 60.2477C36.9502 60.4862 36.718 60.642 36.4602 60.642V60.642C36.2025 60.642 35.9703 60.4862 35.8726 60.2477L11.5725 0.893832C11.4187 0.518142 11.053 0.27272 10.647 0.27272H1.80682Z" fill="black"/>
<path d="M247.123 7.08522C247.123 7.6375 247.57 8.08522 248.123 8.08522H268.992C269.544 8.08522 269.992 8.53294 269.992 9.08522V72C269.992 72.5523 270.44 73 270.992 73H277.799C278.351 73 278.799 72.5523 278.799 72V9.08522C278.799 8.53294 279.246 8.08522 279.799 8.08522H300.668C301.22 8.08522 301.668 7.63751 301.668 7.08522V1.27272C301.668 0.720436 301.22 0.27272 300.668 0.27272H248.123C247.57 0.27272 247.123 0.720436 247.123 1.27272V7.08522Z" fill="black"/>
<path d="M365.26 72C365.26 72.5523 365.708 73 366.26 73H373.067C373.619 73 374.067 72.5523 374.067 72V45.5909C374.067 45.0386 374.514 44.5909 375.067 44.5909H389.976C390.391 44.5909 390.791 44.5909 391.186 44.5812C391.574 44.5716 391.94 44.7742 392.125 45.1164L406.88 72.4747C407.055 72.7983 407.393 73 407.76 73H415.703C416.463 73 416.945 72.1863 416.581 71.5199L401.52 44.0003C401.222 43.4557 401.489 42.7748 402.066 42.5458C410.566 39.1719 414.55 31.8362 414.55 22.5739C414.55 9.71875 406.879 0.27272 389.834 0.27272H366.26C365.708 0.27272 365.26 0.720436 365.26 1.27272V72ZM375.067 36.6364C374.514 36.6364 374.067 36.1886 374.067 35.6364V9.08522C374.067 8.53294 374.514 8.08522 375.067 8.08522H389.55C401.339 8.08522 405.885 13.8381 405.885 22.5739C405.885 31.3097 401.34 36.6364 389.692 36.6364H375.067Z" fill="black"/>
<path d="M488.032 1.27272C488.032 0.720437 487.584 0.27272 487.032 0.27272H480.225C479.673 0.27272 479.225 0.720436 479.225 1.27272V72C479.225 72.5523 479.673 73 480.225 73H487.032C487.584 73 488.032 72.5523 488.032 72V1.27272Z" fill="black"/>
<path d="M560.244 0.745956C560.062 0.45173 559.74 0.27272 559.394 0.27272H551.416C550.624 0.27272 550.146 1.14902 550.575 1.81447L572.67 36.0946C572.883 36.4245 572.883 36.8482 572.67 37.1781L550.575 71.4582C550.146 72.1237 550.624 73 551.416 73H559.4C559.743 73 560.062 72.8241 560.245 72.534L578.549 43.5527C578.644 43.4032 578.808 43.3125 578.985 43.3125V43.3125C579.162 43.3125 579.326 43.4032 579.421 43.5527L597.725 72.534C597.908 72.8241 598.227 73 598.57 73H606.578C607.365 73 607.844 72.1336 607.425 71.4676L585.854 37.1687C585.649 36.8433 585.649 36.4294 585.854 36.104L607.425 1.8051C607.844 1.13915 607.365 0.27272 606.578 0.27272H598.576C598.23 0.27272 597.908 0.451728 597.726 0.745954L579.419 30.2869C579.326 30.4371 579.162 30.5284 578.985 30.5284V30.5284C578.808 30.5284 578.644 30.4371 578.551 30.2869L560.244 0.745956Z" fill="black"/>
<path d="M188.799 72.3345C188.94 72.7335 189.318 73 189.741 73H196.835C197.531 73 198.014 72.308 197.774 71.6553L171.804 0.928038C171.659 0.534378 171.284 0.27272 170.865 0.27272H163.17C162.751 0.27272 162.376 0.534375 162.232 0.928035L136.262 71.6553C136.022 72.308 136.505 73 137.2 73H144.295C144.718 73 145.095 72.7335 145.237 72.3345L166.639 12.0461C166.696 11.8856 166.847 11.7784 167.018 11.7784V11.7784C167.188 11.7784 167.34 11.8856 167.397 12.0461L188.799 72.3345Z" fill="black"/>
</svg>
