<svg width="607" height="73" viewBox="0 0 607 73" fill="none" xmlns="http://www.w3.org/2000/svg">
<path d="M2.80683 0.27272C1.70226 0.27272 0.806824 1.16815 0.806824 2.27272V71C0.806824 72.1046 1.70225 73 2.80682 73H7.04546C8.15003 73 9.04546 72.1046 9.04546 71V18.1696C9.04546 17.9347 9.23587 17.7443 9.47075 17.7443V17.7443C9.64315 17.7443 9.79849 17.8484 9.86407 18.0078L31.9733 71.7608C32.2817 72.5106 33.0122 73 33.8229 73H39.0976C39.9083 73 40.6388 72.5106 40.9472 71.7608L63.0564 18.0078C63.122 17.8484 63.2773 17.7443 63.4497 17.7443V17.7443C63.6846 17.7443 63.875 17.9347 63.875 18.1696V71C63.875 72.1046 64.7704 73 65.875 73H70.1136C71.2182 73 72.1136 72.1046 72.1136 71V2.27272C72.1136 1.16815 71.2182 0.27272 70.1136 0.27272H62.9446C62.1327 0.27272 61.4013 0.763566 61.0937 1.51495L37.0478 60.2477C36.9502 60.4862 36.718 60.642 36.4602 60.642V60.642C36.2025 60.642 35.9703 60.4862 35.8726 60.2477L11.8268 1.51495C11.5191 0.763567 10.7878 0.27272 9.97588 0.27272H2.80683Z" fill="black"/>
<path d="M247.123 6.08522C247.123 7.18979 248.018 8.08522 249.123 8.08522H267.992C269.096 8.08522 269.992 8.98065 269.992 10.0852V71C269.992 72.1046 270.887 73 271.992 73H276.799C277.903 73 278.799 72.1046 278.799 71V10.0852C278.799 8.98066 279.694 8.08522 280.799 8.08522H299.668C300.773 8.08522 301.668 7.18979 301.668 6.08522V2.27272C301.668 1.16815 300.773 0.27272 299.668 0.27272H249.123C248.018 0.27272 247.123 1.16815 247.123 2.27272V6.08522Z" fill="black"/>
<path d="M365.26 71C365.26 72.1046 366.155 73 367.26 73H372.067C373.171 73 374.067 72.1046 374.067 71V46.5909C374.067 45.4863 374.962 44.5909 376.067 44.5909H389.976C390.17 44.5909 390.36 44.5909 390.548 44.5899C391.326 44.5858 392.058 44.993 392.428 45.6774L406.597 71.9494C406.946 72.5965 407.622 73 408.357 73H414.016C415.535 73 416.5 71.3726 415.771 70.0398L402.09 45.0431C401.494 43.954 402.031 42.5965 403.159 42.0788C410.908 38.5243 414.55 31.4296 414.55 22.5739C414.55 9.71875 406.879 0.27272 389.834 0.27272H367.26C366.155 0.27272 365.26 1.16815 365.26 2.27272V71ZM376.067 36.6364C374.962 36.6364 374.067 35.7409 374.067 34.6364V10.0852C374.067 8.98065 374.962 8.08522 376.067 8.08522H389.55C401.339 8.08522 405.885 13.8381 405.885 22.5739C405.885 31.3097 401.34 36.6364 389.692 36.6364H376.067Z" fill="black"/>
<path d="M488.032 2.27272C488.032 1.16815 487.136 0.27272 486.032 0.27272H481.225C480.12 0.27272 479.225 1.16815 479.225 2.27272V71C479.225 72.1046 480.12 73 481.225 73H486.032C487.136 73 488.032 72.1046 488.032 71V2.27272Z" fill="black"/>
<path d="M560.538 1.21919C560.173 0.630734 559.53 0.27272 558.838 0.27272H553.25C551.667 0.27272 550.711 2.02532 551.569 3.35623L572.321 35.5529C572.746 36.2126 572.746 37.0601 572.321 37.7199L551.569 69.9165C550.711 71.2474 551.667 73 553.25 73H558.849C559.535 73 560.173 72.6482 560.54 72.068L578.549 43.5527C578.644 43.4032 578.808 43.3125 578.985 43.3125V43.3125C579.162 43.3125 579.326 43.4032 579.421 43.5527L597.431 72.068C597.797 72.6482 598.435 73 599.122 73H604.768C606.341 73 607.299 71.2671 606.461 69.9353L586.189 37.7011C585.779 37.0503 585.779 36.2224 586.189 35.5716L606.461 3.33747C607.299 2.00558 606.341 0.27272 604.768 0.27272H599.133C598.44 0.27272 597.797 0.630735 597.433 1.21919L579.419 30.2869C579.326 30.4371 579.162 30.5284 578.985 30.5284V30.5284C578.808 30.5284 578.644 30.4371 578.551 30.2869L560.538 1.21919Z" fill="black"/>
<path d="M188.562 71.6691C188.846 72.4669 189.6 73 190.447 73H195.403C196.793 73 197.76 71.616 197.28 70.3106L172.044 1.58335C171.755 0.796027 171.006 0.27272 170.167 0.27272H163.868C163.03 0.27272 162.28 0.79603 161.991 1.58335L136.755 70.3106C136.276 71.616 137.242 73 138.633 73H143.588C144.435 73 145.19 72.4669 145.473 71.6691L166.639 12.0461C166.696 11.8856 166.847 11.7784 167.018 11.7784V11.7784C167.188 11.7784 167.34 11.8856 167.397 12.0461L188.562 71.6691Z" fill="black"/>
</svg>
